<?xml version="1.0" encoding="UTF-8" ?>
<svg xmlns="http://www.w3.org/2000/svg" version="2.0" width="800" height="400">
<polyline points="50,400 50.0,203.92624306704298 60.0,182.9084363140994 70.0,180.865038435341 80.0,181.2445266128247 90.0,183.20035029677925 100.0,185.76919334436118 110.0,212.85881093704396 120.0,222.81307774642406 130.0,234.02257468132734 140.0,240.7365962829619 150.0,281.6629366546658 160.0,272.90551717427275 170.0,262.04631701858517 180.0,248.3847426291719 190.0,211.86630339593265 200.0,171.72813077746423 210.0,63.89510557555701 220.0,64.68327332879238 230.0,62.58149265349812 240.0,58.64065388732115 250.0,55.42960007784376 260.0,50.0 270.0,52.88994842852975 280.0,90.02140702539646 290.0,94.07901138464538 300.0,99.82971684343678 310.0,104.20842658363335 320.0,113.57886542765391 330.0,120.99348058772014 340.0,151.6152573708281 350.0,156.2274982971684 360.0,190.43981706723758 370.0,249.9902695339107 380.0,260.67432129999037 390.0,269.8404203561351 400.0,283.3268463559405 410.0,291.58801206577795 420.0,303.060231585093 430.0,310.1537413642114 440.0,315.9920210178068 450.0,322.23898024715385 460.0,321.33404690084654 470.0,318.79439525153253 480.0,318.15218448963714 490.0,316.8093801693101 500.0,318.8235866498005 510.0,320.63345334241507 520.0,322.23898024715385 530.0,333.419285783789 540.0,336.9514449742143 550.0,338.93646005643683 560.0,349.70808601732034 570.0,348.3360902987253 580.0,350.0 590.0,349.8832344069282 600.0,341.24258051960686 610.0,328.544322273037 620.0,314.4448769096039 630.0,303.8192079400603 640.0,289.8657195679674 650.0,274.1023645032597 660.0,268.4100418410042 670.0,258.3098180402842 680.0,247.6841490707406 690.0,230.40284129609813 700.0,230.49041549090202 710.0,230.60718108397396 720.0,227.8048068502482 730.0,225.9657487593655 740.0,224.65213583730662 750.0,203.92624306704298 750,400 50,400" style="fill:white;stroke:red;stroke-width:4" />
</svg>